:SAMPLES-PER-SECOND 30
:FULLY-SPECIFIED
:DEGREES
111
root  -66.5371 37.6845 -5.12797 177.489 -74.0418 -177.141
RightUpLeg  -19.124 -1.19532 -6.35992
RightLeg  72.7278 0.418917 0.653697
RightFoot  7.01871 -1.24825 7.93624
RightToes  0.000482159 0.542163 -0.142577
Spine  28.6025 3.02591 -2.67163
Spine1  -8.16387 2.48409 -1.29632
HEad  -24.4313 7.56144 1.0977
LeftShoulder1  5.61566 -7.77881 -43.2682
LeftArm  -22.8218 30.4171 -26.2799
LeftForeArm  31.2018 -26.8737 -4.11131
LeftHand  -0.25398 0.0180481 5.50724
RightShoulder  5.25515 8.4109 38.0637
RightArm  -1.96262 -27.8496 32.8808
RightForeArm  -15.2368 24.5113 6.0847
RightHand  -1.85346 4.51945 -21.8077
LeftUpLeg  -35.4512 9.32446 1.25732
LeftLeg  23.3197 3.62895 2.04121
LeftFoot  11.7517 -0.835252 3.69962
LeftToes  1.06246e-005 4.65855e-005 -8.18504e-006
112
root  -67.5555 38.2028 -5.11197 175.643 -73.8765 -174.451
RightUpLeg  -26.2184 -3.86758 -4.49046
RightLeg  75.9306 0.0373952 -1.05814
RightFoot  4.16144 -0.82609 6.28472
RightToes  0.000482159 0.542163 -0.142577
Spine  29.3813 2.54382 -2.87567
Spine1  -8.3224 1.80507 -0.615156
HEad  -25.2159 8.52199 1.34731
LeftShoulder1  5.98544 -8.46799 -43.4665
LeftArm  -20.8368 23.2366 -26.7325
LeftForeArm  34.3396 -31.0543 -4.88256
LeftHand  -0.25398 0.0180481 5.50724
RightShoulder  5.4646 8.7127 38.6611
RightArm  0.0759509 -25.7212 33.3808
RightForeArm  -13.8247 20.5728 5.77456
RightHand  -1.70614 4.15984 -20.8622
LeftUpLeg  -34.1179 8.98056 1.89464
LeftLeg  22.649 3.62568 1.99561
LeftFoot  10.9541 -0.789247 3.66372
LeftToes  1.06246e-005 4.65855e-005 -8.18504e-006
113
root  -68.4845 38.7769 -5.13774 174.571 -73.2807 -172.718
RightUpLeg  -32.3373 -5.2254 -2.24625
RightLeg  74.8561 -0.167731 -1.84774
RightFoot  1.4616 -0.670713 6.07016
RightToes  0.000482159 0.542163 -0.142577
Spine  29.7891 2.34566 -3.01863
Spine1  -8.52421 1.45807 -0.120303
HEad  -25.3997 9.34159 1.95058
LeftShoulder1  5.88208 -8.56512 -42.2961
LeftArm  -21.4041 18.1509 -27.9196
LeftForeArm  34.6141 -35.4607 -5.94501
LeftHand  -0.25398 0.0180481 5.50724
RightShoulder  5.56015 8.87461 38.8383
RightArm  0.908644 -24.8601 33.9743
RightForeArm  -12.0229 20.0466 5.90336
RightHand  -1.63156 3.91282 -20.4864
LeftUpLeg  -32.2611 11.0257 1.92745
LeftLeg  20.902 2.34414 1.32933
LeftFoot  10.9481 -0.629018 2.85167
LeftToes  1.06246e-005 4.65855e-005 -8.18504e-006
114
root  -69.3803 39.3183 -5.1795 173.537 -72.8891 -171.435
RightUpLeg  -36.488 -5.84123 -0.123219
RightLeg  69.5366 -0.771033 -3.04994
RightFoot  1.00409 -0.653044 6.09413
RightToes  0.000482159 0.542163 -0.142577
Spine  30.3063 1.77535 -2.88385
Spine1  -8.78875 0.923161 -0.192849
HEad  -25.1799 10.7323 1.90924
LeftShoulder1  5.48121 -8.26751 -40.2602
LeftArm  -22.8582 15.3657 -29.3808
LeftForeArm  34.0543 -39.0832 -6.95518
LeftHand  -0.25398 0.0180481 5.50724
RightShoulder  5.64317 8.97893 39.1154
RightArm  2.23904 -24.6226 34.4214
RightForeArm  -11.9313 21.9607 5.62527
RightHand  -1.68979 4.14911 -20.6898
LeftUpLeg  -29.5645 13.4462 1.65706
LeftLeg  18.5107 0.746924 0.577122
LeftFoot  9.8909 -0.675911 3.28868
LeftToes  1.06246e-005 4.65855e-005 -8.18504e-006
115
root  -70.3183 39.8005 -5.23333 172.216 -73.2455 -170.077
RightUpLeg  -37.9507 -6.97379 1.43096
RightLeg  60.2618 -1.21184 -2.89797
RightFoot  0.705636 -0.626698 5.98393
RightToes  0.000482159 0.542163 -0.142577
Spine  30.5184 0.907397 -2.75825
Spine1  -8.86093 0.0316008 0.400224
HEad  -25.1215 12.3052 1.24971
LeftShoulder1  5.0998 -7.76076 -39.0421
LeftArm  -23.2797 13.8461 -29.6877
LeftForeArm  34.0734 -40.9087 -7.49069
LeftHand  -0.25398 0.0180481 5.50724
RightShoulder  5.65602 8.96189 39.2721
RightArm  2.26079 -24.288 34.6254
RightForeArm  -11.4731 24.2367 5.71671
RightHand  -1.75152 4.41005 -20.8774
LeftUpLeg  -26.5892 14.1687 1.8261
LeftLeg  16.0586 -0.119766 -0.132273
LeftFoot  8.98358 -0.792165 4.10796
LeftToes  1.06246e-005 4.65855e-005 -8.18504e-006
116
root  -71.3174 40.1955 -5.35085 171.834 -74.1202 -169.915
RightUpLeg  -36.7723 -8.20204 1.87204
RightLeg  48.2738 -0.0352917 -0.454934
RightFoot  0.292335 -0.667634 6.55802
RightToes  0.000482159 0.542163 -0.142577
Spine  29.9718 0.368462 -3.26041
Spine1  -8.31024 -0.725667 1.88247
HEad  -25.0014 13.2659 0.234627
LeftShoulder1  4.96124 -7.36962 -39.3667
LeftArm  -22.4683 12.8765 -28.6389
LeftForeArm  33.7785 -40.8116 -7.48385
LeftHand  -0.25398 0.0180481 5.50724
RightShoulder  5.56526 8.81693 39.0781
RightArm  1.3581 -23.785 34.7312
RightForeArm  -10.9301 25.6603 6.05032
RightHand  -1.71798 4.28446 -20.743
LeftUpLeg  -23.836 13.4225 2.30075
LeftLeg  14.5056 0.0665989 -0.888951
LeftFoot  8.73657 -0.769408 4.04059
LeftToes  1.06246e-005 4.65855e-005 -8.18504e-006
117
root  -72.3764 40.4627 -5.56521 172.671 -75.0655 -171.523
RightUpLeg  -33.6178 -8.25781 1.11775
RightLeg  36.1774 2.17401 1.48884
RightFoot  1.61391 -0.810927 7.22646
RightToes  0.000482159 0.542163 -0.142577
Spine  28.861 0.134072 -3.89175
Spine1  -7.40535 -1.03002 2.52204
HEad  -24.21 13.3774 -0.0333658
LeftShoulder1  4.9182 -7.21265 -39.6134
LeftArm  -21.7631 13.0497 -27.8944
LeftForeArm  33.1018 -39.8952 -7.25266
LeftHand  -0.25398 0.0180481 5.50724
RightShoulder  5.48994 8.57275 39.3583
RightArm  0.973913 -23.2593 34.4827
RightForeArm  -11.0094 25.9682 6.12681
RightHand  -1.65893 4.07157 -20.4849
LeftUpLeg  -21.0992 12.9827 2.34621
LeftLeg  14.2525 0.0147468 -1.50364
LeftFoot  7.60517 -0.679222 3.79573
LeftToes  1.06246e-005 4.65855e-005 -8.18504e-006
118
root  -73.4716 40.5876 -5.85904 174.43 -76.3112 -174.484
RightUpLeg  -29.4965 -7.38323 -0.461031
RightLeg  26.5132 3.02636 1.44584
RightFoot  4.91532 -0.959289 6.96283
RightToes  0.000482159 0.542163 -0.142577
Spine  27.4125 -0.143126 -4.18635
Spine1  -6.52721 -1.15762 1.96838
HEad  -22.7299 12.9734 0.678806
LeftShoulder1  4.79471 -7.13613 -38.8282
LeftArm  -21.8393 14.6501 -28.2408
LeftForeArm  33.0679 -38.9368 -6.9764
LeftHand  -0.25398 0.0180481 5.50724
RightShoulder  5.42129 8.19458 40.1909
RightArm  0.938865 -22.8958 34.0615
RightForeArm  -11.0144 25.5373 6.02682
RightHand  -1.66473 4.16345 -20.3657
LeftUpLeg  -18.3073 12.3385 2.00349
LeftLeg  14.9667 -0.194388 -1.85549
LeftFoot  5.14047 -0.641275 4.21733
LeftToes  1.06246e-005 4.65855e-005 -8.18504e-006
